<svg width="72" height="80" viewBox="0 0 72 75" fill="none" xmlns="http://www.w3.org/2000/svg">
<g style="mix-blend-mode:luminosity">
<path d="M35.8892 0.0947266L0.23877 12.4842L5.87249 58.6081L35.9269 74.92L66.1365 58.387L71.7679 12.2648L35.8892 0.0947266Z" fill="#B3B3B3"/>
<path d="M68.2123 14.9303L35.8062 4.01758V71.0226L62.9639 56.1802L68.2121 14.9303H68.2123Z" fill="#A6120D"/>
<path d="M4.23926 15.1271L9.06691 56.3776L35.8053 71.0228V4.0166L4.23954 15.1268L4.23926 15.1271Z" fill="#DD1B16"/>
<path d="M44.7264 39.6879L35.806 43.8073H26.4041L21.9845 54.7236L13.7642 54.8736L35.806 6.45117L44.7264 39.6882V39.6879ZM43.8641 37.6141L35.8654 21.9768L29.3041 37.3449H35.8057L43.8641 37.6144V37.6141Z" fill="#F2F2F2"/>
<path d="M35.8057 6.45068L35.8647 21.9766L43.3094 37.3567H35.8225L35.8057 43.7971L46.1585 43.8068L50.9971 54.8751L58.8628 55.0189L35.8057 6.45068Z" fill="#B3B3B3"/>
</g>
</svg>
