<svg width="69" height="80" viewBox="0 0 69 61" fill="none" xmlns="http://www.w3.org/2000/svg">
<g style="mix-blend-mode:luminosity">
<path d="M21.9824 51.182L9.86963 30.2679L21.9824 9.35352H46.2068L58.3192 30.2679L46.2065 51.182H21.9826" fill="#CAC9C2"/>
<path d="M34.4992 39.8146C29.2932 39.8146 25.0581 35.5923 25.0581 30.4024C25.0581 25.2128 29.2932 20.9907 34.4992 20.9907C39.705 20.9907 43.9401 25.2128 43.9401 30.4024C43.9401 35.5923 39.705 39.8146 34.4992 39.8146Z" fill="white"/>
<path d="M53.4927 2.34187C52.7502 1.06018 50.9281 0.0117188 49.4438 0.0117188H19.5951C18.1106 0.0117188 16.2885 1.06045 15.5465 2.34187L6.82474 17.4018C6.75628 18.3748 6.93525 19.391 7.36569 20.1337L13.2695 30.1964L23.8084 12.0456H57.1198C57.9079 12.0456 58.7898 12.3431 59.5564 12.8117L53.4927 2.34187Z" fill="#5072AA"/>
<path d="M7.20396 16.7427L6.8223 17.4018C6.75384 18.3747 6.93281 19.391 7.36298 20.1336L13.2668 30.1964L16.4079 24.7872L7.20396 16.7427Z" fill="#4D6796"/>
<path d="M20.364 7.74842C19.8811 7.74785 19.4181 7.55635 19.0766 7.21594C18.7351 6.87552 18.5431 6.41398 18.5425 5.93256C18.5431 5.45114 18.7351 4.9896 19.0766 4.64918C19.4181 4.30876 19.8811 4.11727 20.364 4.1167C20.847 4.11713 21.31 4.30857 21.6516 4.64901C21.9931 4.98945 22.1852 5.45107 22.1857 5.93256C22.1852 6.41403 21.993 6.87561 21.6515 7.21603C21.31 7.55646 20.8469 7.74792 20.364 7.74842ZM50.2124 5.93256C50.2152 6.15515 50.1737 6.37608 50.0902 6.58254C50.0067 6.78901 49.8829 6.97688 49.726 7.13528C49.5691 7.29368 49.3823 7.41945 49.1762 7.50529C48.9702 7.59113 48.7491 7.63533 48.5258 7.63533C48.3025 7.63533 48.0814 7.59113 47.8754 7.50529C47.6694 7.41945 47.4825 7.29368 47.3256 7.13528C47.1687 6.97688 47.0449 6.78901 46.9614 6.58254C46.8779 6.37608 46.8364 6.15515 46.8392 5.93256C46.8448 5.49031 47.025 5.06807 47.3407 4.75732C47.6564 4.44656 48.0822 4.2723 48.5258 4.2723C48.9695 4.2723 49.3953 4.44656 49.711 4.75732C50.0266 5.06807 50.2068 5.49031 50.2124 5.93256Z" fill="white"/>
<path d="M68.4168 28.1124L59.556 12.8117C58.7894 12.3431 57.9075 12.0459 57.1194 12.0459H45.1069L55.4939 30.2969L39.0492 59.2609C38.6872 59.8854 38.0684 60.4537 37.3579 60.8731H49.4434C50.928 60.8731 52.75 59.8244 53.4923 58.543L68.4168 32.773C69.1594 31.4913 69.1594 29.3941 68.4168 28.1124Z" fill="#CC4232"/>
<path d="M59.9561 13.4982L59.5588 12.8117C58.7928 12.3431 57.9109 12.0459 57.1228 12.0459H45.1104L48.2369 17.54L59.9561 13.4982Z" fill="#B23F33"/>
<path d="M48.5256 56.4221C48.0426 56.4216 47.5796 56.23 47.2381 55.8895C46.8967 55.5491 46.7046 55.0875 46.7041 54.606C46.7047 54.1246 46.8968 53.663 47.2382 53.3226C47.5797 52.9822 48.0427 52.7907 48.5256 52.7901C49.0086 52.7906 49.4716 52.9821 49.8131 53.3225C50.1547 53.6629 50.3468 54.1245 50.3474 54.606C50.3469 55.0875 50.1548 55.5492 49.8132 55.8896C49.4717 56.2301 49.0086 56.4216 48.5256 56.4221ZM62.7019 32.2189C62.2189 32.2184 61.7558 32.0269 61.4142 31.6864C61.0727 31.3459 60.8806 30.8843 60.8801 30.4028C60.8807 29.9213 61.0728 29.4597 61.4143 29.1193C61.7559 28.7789 62.2189 28.5874 62.7019 28.5869C63.1848 28.5875 63.6477 28.779 63.9892 29.1194C64.3307 29.4598 64.5228 29.9214 64.5233 30.4028C64.5229 30.8843 64.3309 31.3459 63.9894 31.6864C63.6479 32.0269 63.1848 32.2184 62.7019 32.2189Z" fill="white"/>
<path d="M24.0377 48.5512L7.36533 20.1337C6.93516 19.391 6.75619 18.3748 6.82438 17.4019L0.621658 28.1122C-0.120631 29.3938 -0.120631 31.491 0.621658 32.7727L15.5461 58.5427C16.2882 59.8241 18.1102 60.8726 19.5948 60.8726H37.358C38.0684 60.4534 38.6873 59.8851 39.0493 59.2604L45.1296 48.5509H24.0377" fill="#ECB02A"/>
<path d="M36.3481 60.8729H37.3813C38.092 60.4538 38.7106 59.8855 39.0723 59.2608L45.1529 48.5513H38.6777L36.3481 60.8729Z" fill="#C79732"/>
<path d="M20.3639 56.4221C19.8809 56.4216 19.4179 56.23 19.0765 55.8895C18.735 55.5491 18.5429 55.0875 18.5424 54.606C18.543 54.1246 18.7351 53.663 19.0765 53.3226C19.418 52.9822 19.881 52.7907 20.3639 52.7901C20.8469 52.7906 21.31 52.982 21.6515 53.3224C21.9931 53.6629 22.1852 54.1245 22.1857 54.606C22.1852 55.0875 21.9932 55.5492 21.6516 55.8897C21.3101 56.2302 20.8469 56.4217 20.3639 56.4221ZM6.16258 32.2189C5.67957 32.2184 5.21649 32.0269 4.87495 31.6864C4.53341 31.3459 4.34132 30.8843 4.34082 30.4028C4.34139 29.9213 4.53352 29.4597 4.87505 29.1193C5.21658 28.7789 5.67962 28.5874 6.16258 28.5869C6.6455 28.5875 7.10847 28.779 7.44994 29.1194C7.79141 29.4598 7.9835 29.9214 7.98407 30.4028C7.98357 30.8842 7.79151 31.3459 7.45003 31.6863C7.10855 32.0268 6.64554 32.2183 6.16258 32.2189Z" fill="white"/>
</g>
</svg>
