<svg width="22" height="41" viewBox="0 0 22 41" fill="none" xmlns="http://www.w3.org/2000/svg">
<path fill-rule="evenodd" clip-rule="evenodd" d="M11.0011 9.48416C8.07374 9.48416 7.70635 9.49696 6.55658 9.54928C5.40906 9.60183 4.62578 9.7835 3.94042 10.0501C3.23147 10.3254 2.63009 10.6937 2.03095 11.293C1.43137 11.8922 1.06308 12.4935 0.786867 13.2023C0.519637 13.8879 0.33774 14.6714 0.28609 15.8184C0.234665 16.9682 0.221191 17.3358 0.221191 20.2632C0.221191 23.1906 0.234216 23.5569 0.286315 24.7067C0.339087 25.8542 0.520759 26.6375 0.787092 27.3228C1.06263 28.0318 1.43092 28.6332 2.03028 29.2323C2.62919 29.8319 3.23057 30.2011 3.93907 30.4764C4.62489 30.7429 5.40839 30.9246 6.55569 30.9772C7.70545 31.0295 8.07261 31.0423 10.9998 31.0423C13.9274 31.0423 14.2937 31.0295 15.4435 30.9772C16.591 30.9246 17.3752 30.7429 18.061 30.4764C18.7697 30.2011 19.3702 29.8319 19.9691 29.2323C20.5687 28.6332 20.937 28.0318 21.2132 27.3231C21.4782 26.6375 21.6601 25.854 21.714 24.7069C21.7656 23.5571 21.7791 23.1906 21.7791 20.2632C21.7791 17.3358 21.7656 16.9684 21.714 15.8187C21.6601 14.6711 21.4782 13.8879 21.2132 13.2025C20.937 12.4935 20.5687 11.8922 19.9691 11.293C19.3695 10.6934 18.7699 10.3252 18.0603 10.0501C17.3731 9.7835 16.5894 9.60183 15.4419 9.54928C14.2921 9.49696 13.9261 9.48416 10.9978 9.48416H11.0011ZM10.0341 11.4266C10.3211 11.4262 10.6414 11.4266 11.0011 11.4266C13.8791 11.4266 14.2202 11.4369 15.3567 11.4886C16.4077 11.5366 16.9781 11.7123 17.3581 11.8598C17.8611 12.0552 18.2197 12.2887 18.5967 12.666C18.974 13.0432 19.2076 13.4025 19.4034 13.9056C19.5509 14.2851 19.7267 14.8555 19.7746 15.9064C19.8262 17.0427 19.8375 17.3841 19.8375 20.2607C19.8375 23.1374 19.8262 23.4787 19.7746 24.615C19.7265 25.666 19.5509 26.2364 19.4034 26.6159C19.208 27.1189 18.974 27.4771 18.5967 27.8541C18.2195 28.2314 17.8613 28.4649 17.3581 28.6603C16.9785 28.8085 16.4077 28.9837 15.3567 29.0317C14.2204 29.0834 13.8791 29.0946 11.0011 29.0946C8.12287 29.0946 7.78176 29.0834 6.64546 29.0317C5.59451 28.9832 5.02411 28.8076 4.64393 28.6601C4.14091 28.4647 3.7816 28.2312 3.40434 27.8539C3.02707 27.4766 2.79352 27.1182 2.5977 26.615C2.45017 26.2355 2.27433 25.6651 2.2265 24.6141C2.17485 23.4778 2.16452 23.1365 2.16452 20.258C2.16452 17.3796 2.17485 17.04 2.2265 15.9037C2.27456 14.8528 2.45017 14.2824 2.5977 13.9024C2.79307 13.3994 3.02707 13.0401 3.40434 12.6628C3.7816 12.2856 4.14091 12.052 4.64393 11.8562C5.02389 11.708 5.59451 11.5328 6.64546 11.4845C7.63983 11.4396 8.02518 11.4262 10.0341 11.4239V11.4266ZM16.7549 13.2164C16.0408 13.2164 15.4614 13.7951 15.4614 14.5094C15.4614 15.2235 16.0408 15.8029 16.7549 15.8029C17.469 15.8029 18.0484 15.2235 18.0484 14.5094C18.0484 13.7953 17.469 13.2164 16.7549 13.2164ZM11.0012 14.7277C7.94418 14.7277 5.46567 17.2062 5.46567 20.2632C5.46567 23.3202 7.94418 25.7976 11.0012 25.7976C14.0582 25.7976 16.5358 23.3202 16.5358 20.2632C16.5358 17.2062 14.0582 14.7277 11.0012 14.7277ZM11.0011 16.6702C12.9854 16.6702 14.5941 18.2787 14.5941 20.2632C14.5941 22.2474 12.9854 23.8562 11.0011 23.8562C9.01666 23.8562 7.40811 22.2474 7.40811 20.2632C7.40811 18.2787 9.01666 16.6702 11.0011 16.6702Z" fill="black"/>
</svg>
