<svg width="169" height="80" viewBox="0 0 169 45" fill="none" xmlns="http://www.w3.org/2000/svg">
<g style="mix-blend-mode:luminosity">
<path fill-rule="evenodd" clip-rule="evenodd" d="M85.3728 6.02487e-05C85.2557 0.00147512 85.1372 0.0291296 85.0327 0.0897852C84.8241 0.211003 84.6927 0.433625 84.6927 0.673015V17.8333C84.6927 18.002 84.6133 18.1527 84.466 18.2373C84.3183 18.322 84.138 18.322 83.9899 18.2373L81.1563 16.6221C80.7341 16.3812 80.2184 16.3814 79.7961 16.6221L68.4841 23.0825C68.0611 23.3238 67.804 23.7882 67.804 24.2713V37.192C67.804 37.6748 68.0616 38.1167 68.4841 38.3585L79.7961 44.8189C80.219 45.0604 80.7333 45.0604 81.1563 44.8189L92.4683 38.3585C92.8908 38.1167 93.1483 37.6748 93.1483 37.192V4.97993C93.1483 4.48993 92.8781 4.03008 92.4456 3.79105L85.7128 0.0673583C85.607 0.00900042 85.4898 -0.00118977 85.3728 0.000103427V6.02487e-05ZM12.6042 16.1285C12.3884 16.1372 12.1858 16.1744 11.9921 16.2855L0.680081 22.7459C0.258576 22.9871 0 23.4262 0 23.9124L0.0226207 41.2521C0.0226207 41.4934 0.148365 41.7173 0.362663 41.8354C0.572705 41.9599 0.83341 41.9599 1.04274 41.8354L7.75287 38.0221C8.17793 37.7721 8.45561 37.3374 8.45561 36.8556V28.7576C8.45561 28.2747 8.7124 27.8314 9.13569 27.5912L11.992 25.9537C12.2052 25.8317 12.4341 25.7743 12.6721 25.7743C12.9053 25.7743 13.1449 25.8317 13.3522 25.9537L16.2085 27.5912C16.6318 27.8314 16.8887 28.2747 16.8887 28.7576V36.8556C16.8887 37.3374 17.169 37.7749 17.5914 38.0221L24.3014 41.8354C24.5123 41.9599 24.7726 41.9599 24.9816 41.8354C25.1898 41.7173 25.3216 41.4934 25.3216 41.2521L25.3443 23.9124C25.3443 23.4262 25.0886 22.9871 24.6641 22.7459L13.3522 16.2855C13.1608 16.1744 12.9573 16.1373 12.7401 16.1285H12.6041H12.6042ZM114.253 16.2855C114.017 16.2853 113.786 16.3445 113.573 16.465L102.261 22.9253C101.839 23.1669 101.581 23.6089 101.581 24.0919V37.0127C101.581 37.4983 101.858 37.9389 102.284 38.1791L113.505 44.5048C113.92 44.739 114.426 44.7565 114.843 44.527L121.644 40.7809C121.86 40.6625 122.005 40.4412 122.006 40.1977C122.008 39.9541 121.879 39.7358 121.666 39.6144L110.286 33.1541C110.073 33.0339 109.924 32.7903 109.924 32.5483V28.5106C109.924 28.2693 110.075 28.048 110.286 27.9275L113.823 25.9085C114.033 25.7881 114.292 25.7881 114.503 25.9085L118.039 27.9275C118.251 28.048 118.379 28.2693 118.379 28.5106V31.6961C118.379 31.9379 118.508 32.1587 118.719 32.2793C118.932 32.4002 119.188 32.4006 119.399 32.2793L126.178 28.3762C126.598 28.1343 126.858 27.6911 126.858 27.2096V24.0916C126.858 23.6101 126.599 23.1671 126.178 22.9252L114.934 16.4649C114.722 16.3434 114.49 16.2857 114.253 16.2853V16.2855ZM80.4308 25.9313C80.4897 25.9313 80.5592 25.9456 80.6122 25.9757L84.4887 28.1965C84.5938 28.2569 84.6699 28.3678 84.6699 28.4881V32.9296C84.6699 33.0502 84.5946 33.1614 84.4887 33.2213L80.6122 35.442C80.5066 35.5016 80.3776 35.5016 80.2722 35.442L76.3958 33.2213C76.2902 33.161 76.2143 33.0502 76.2143 32.9296V28.4881C76.2143 28.3678 76.2905 28.2572 76.3958 28.1965L80.2722 25.9762C80.3251 25.9461 80.3719 25.9316 80.4308 25.9316V25.9313Z" fill="#7C24F8"/>
<path fill-rule="evenodd" clip-rule="evenodd" d="M148.144 15.9712C147.752 15.9712 147.371 16.0514 147.033 16.2404L136.356 22.3419C135.665 22.7355 135.245 23.4797 135.245 24.2711V36.4516C135.245 37.2425 135.665 37.9857 136.356 38.3806L139.144 39.9733C140.499 40.634 140.999 40.6237 141.615 40.6237C143.621 40.6237 144.766 39.4194 144.766 37.3263V25.3029C144.766 25.1329 144.618 25.0112 144.449 25.0112H143.111C142.94 25.0112 142.794 25.1329 142.794 25.3029V37.3263C142.794 38.2541 141.817 39.1872 140.232 38.4031L137.331 36.7207C137.228 36.6654 137.149 36.5678 137.149 36.4516V24.2711C137.149 24.1553 137.227 24.038 137.331 23.9795L147.985 17.9005C148.085 17.8437 148.204 17.8437 148.303 17.9005L158.958 23.9795C159.058 24.0397 159.139 24.1519 159.139 24.2711V36.4516C159.139 36.5678 159.08 36.687 158.979 36.7432L148.303 42.8222C148.211 42.8761 148.085 42.8761 147.985 42.8222L145.242 41.207C145.161 41.1597 145.049 41.1633 144.97 41.207C144.213 41.6319 144.071 41.6812 143.361 41.9249C143.186 41.9852 142.92 42.0791 143.451 42.3736L147.033 44.4598C147.374 44.655 147.754 44.7513 148.144 44.7513C148.539 44.7513 148.914 44.655 149.255 44.4598L159.933 38.3806C160.623 37.9829 161.043 37.2425 161.043 36.4516V24.2711C161.043 23.4797 160.623 22.7372 159.933 22.3419L149.255 16.2404C148.92 16.0514 148.536 15.9712 148.144 15.9712ZM46.5853 16.2179C46.3496 16.2179 46.1163 16.2769 45.9053 16.3975L34.5933 22.8354C34.1703 23.0765 33.9131 23.5416 33.9131 24.0242V36.9449C33.9131 37.4281 34.1706 37.8697 34.5933 38.1115L45.9053 44.5718C46.3282 44.8135 46.8425 44.8135 47.2655 44.5718L58.5775 38.1115C58.9997 37.8697 59.2575 37.4281 59.2575 36.9449V24.0242C59.2575 23.541 59.0003 23.0765 58.5775 22.8354L47.2655 16.3975C47.0543 16.2769 46.821 16.2179 46.5853 16.2179ZM163.99 16.2854V16.5995H164.874V18.9098H165.237V16.5995H166.144V16.2854H163.99ZM166.46 16.2854V18.9098H166.801V17.3622C166.801 17.299 166.804 17.2012 166.801 17.0706C166.797 16.9374 166.801 16.8214 166.801 16.7565V16.689L167.549 18.9097H167.911L168.682 16.689C168.682 16.8302 168.663 16.9666 168.66 17.0928C168.659 17.2155 168.66 17.3077 168.66 17.362V18.9097H169V16.2853H168.501L167.73 18.5059L166.983 16.2853H166.46V16.2854ZM151 24.675C147.96 24.675 146.149 25.9553 146.149 28.0846C146.149 30.3945 147.946 31.0291 150.864 31.3148C154.355 31.6529 154.627 32.1602 154.627 32.8401C154.627 34.0196 153.677 34.5225 151.431 34.5225C148.609 34.5225 147.989 33.8253 147.781 32.4364C147.757 32.2874 147.641 32.1672 147.487 32.1672H146.104C145.933 32.1672 145.786 32.3122 145.786 32.4812C145.786 34.2592 146.764 36.3619 151.431 36.3619C154.81 36.3619 156.759 35.0496 156.759 32.7505C156.759 30.471 155.184 29.8593 151.907 29.4305C148.596 28.997 148.28 28.7847 148.28 28.0174C148.28 27.3838 148.547 26.5367 151 26.5367C153.191 26.5367 154.001 27.0043 154.333 28.466C154.362 28.6033 154.484 28.7127 154.627 28.7127H156.01C156.095 28.7127 156.178 28.661 156.237 28.6005C156.295 28.5358 156.336 28.463 156.328 28.3763C156.114 25.8589 154.417 24.675 151 24.675ZM114.231 27.7482C114.185 27.7482 114.135 27.7482 114.095 27.7703L111.918 29.0266C111.837 29.0726 111.782 29.1581 111.782 29.2508V31.7184C111.782 31.8112 111.837 31.8964 111.918 31.9428L114.095 33.1764C114.176 33.2231 114.263 33.2231 114.344 33.1764L116.52 31.9428C116.601 31.8967 116.656 31.8112 116.656 31.7184V29.2508C116.656 29.1581 116.601 29.0729 116.52 29.0266L114.344 27.7703C114.304 27.7468 114.276 27.7482 114.231 27.7482Z" fill="#7C24F8"/>
</g>
</svg>
